<svg class="svg-icon" style="width: 1em; height: 1em;vertical-align: middle;fill: currentColor;overflow: hidden;" viewBox="0 0 1024 1024" version="1.1" xmlns="http://www.w3.org/2000/svg"><path d="M896 469.333333h-341.333333V128a341.333333 341.333333 0 0 1 341.333333 341.333333m-85.333333 85.333334a342.186667 342.186667 0 0 1-152.32 284.586666L494.08 554.666667H810.666667m-341.333334 341.333333a342.186667 342.186667 0 0 1-284.586666-152.32l276.906666-160 159.573334 276.906667c-45.226667 22.613333-97.28 35.413333-151.893334 35.413333m-341.333333-341.333333a341.333333 341.333333 0 0 1 341.333333-341.333334v316.586667l-305.92 176.64A340.096 340.096 0 0 1 128 554.666667z" fill="#fff" /></svg>