<svg xmlns="http://www.w3.org/2000/svg" x="0px" y="0px" width="50" height="50" viewBox="0 0 48 48" fill="#55e6a5">
<path d="M38.5 18h-29C7.57 18 6 19.57 6 21.5v5C6 28.43 7.57 30 9.5 30h29c1.93 0 3.5-1.57 3.5-3.5v-5C42 19.57 40.43 18 38.5 18zM39 26.5c0 .275-.224.5-.5.5H33v-6h5.5c.276 0 .5.225.5.5V26.5zM38.5 4h-29C7.57 4 6 5.57 6 7.5v5C6 14.43 7.57 16 9.5 16h29c1.93 0 3.5-1.57 3.5-3.5v-5C42 5.57 40.43 4 38.5 4zM39 12.5c0 .275-.224.5-.5.5H18V7h20.5C38.776 7 39 7.225 39 7.5V12.5zM38.5 32h-29C7.57 32 6 33.57 6 35.5v5C6 42.43 7.57 44 9.5 44h29c1.93 0 3.5-1.57 3.5-3.5v-5C42 33.57 40.43 32 38.5 32zM39 40.5c0 .275-.224.5-.5.5H24v-6h14.5c.276 0 .5.225.5.5V40.5z"></path>
</svg>